<svg width="33" height="41" viewBox="0 0 33 41" fill="none" xmlns="http://www.w3.org/2000/svg">
<path d="M16.4886 24.04C20.9006 24.04 24.4886 20.452 24.4886 16.04C24.4886 11.628 20.9006 8.04004 16.4886 8.04004C12.0766 8.04004 8.48865 11.628 8.48865 16.04C8.48865 20.452 12.0766 24.04 16.4886 24.04ZM16.4886 12.04C18.6946 12.04 20.4886 13.834 20.4886 16.04C20.4886 18.246 18.6946 20.04 16.4886 20.04C14.2826 20.04 12.4886 18.246 12.4886 16.04C12.4886 13.834 14.2826 12.04 16.4886 12.04Z" fill="black"/>
<path d="M15.3287 39.668C15.6672 39.9098 16.0728 40.0397 16.4887 40.0397C16.9046 40.0397 17.3102 39.9098 17.6487 39.668C18.2567 39.238 32.5467 28.92 32.4887 16.04C32.4887 7.21804 25.3107 0.0400391 16.4887 0.0400391C7.6667 0.0400391 0.488701 7.21804 0.488701 16.03C0.430701 28.92 14.7207 39.238 15.3287 39.668ZM16.4887 4.04004C23.1067 4.04004 28.4887 9.42204 28.4887 16.05C28.5307 24.926 19.7127 32.896 16.4887 35.51C13.2667 32.894 4.4467 24.922 4.4887 16.04C4.4887 9.42204 9.8707 4.04004 16.4887 4.04004Z" fill="black"/>
</svg>
