<svg width="39" height="39" viewBox="0 0 39 39" fill="none" xmlns="http://www.w3.org/2000/svg">
<path d="M29.5694 20.626C29.3838 20.4401 29.1634 20.2926 28.9208 20.192C28.6781 20.0913 28.4181 20.0396 28.1554 20.0396C27.8927 20.0396 27.6326 20.0913 27.39 20.192C27.1474 20.2926 26.927 20.4401 26.7414 20.626L23.5534 23.814C22.0754 23.374 19.3174 22.374 17.5694 20.626C15.8214 18.878 14.8214 16.12 14.3814 14.642L17.5694 11.454C17.7553 11.2684 17.9028 11.048 18.0034 10.8053C18.104 10.5627 18.1558 10.3026 18.1558 10.04C18.1558 9.77729 18.104 9.5172 18.0034 9.27457C17.9028 9.03194 17.7553 8.81153 17.5694 8.62595L9.56939 0.625953C9.38382 0.440062 9.16341 0.292586 8.92078 0.191964C8.67815 0.0913429 8.41806 0.0395508 8.15539 0.0395508C7.89272 0.0395508 7.63263 0.0913429 7.39001 0.191964C7.14738 0.292586 6.92697 0.440062 6.74139 0.625953L1.31739 6.04995C0.557392 6.80995 0.129392 7.85395 0.145392 8.91995C0.191392 11.768 0.945392 21.66 8.74139 29.456C16.5374 37.252 26.4294 38.004 29.2794 38.052H29.3354C30.3914 38.052 31.3894 37.636 32.1454 36.88L37.5694 31.456C37.7553 31.2704 37.9028 31.05 38.0034 30.8073C38.104 30.5647 38.1558 30.3046 38.1558 30.042C38.1558 29.7793 38.104 29.5192 38.0034 29.2766C37.9028 29.0339 37.7553 28.8135 37.5694 28.628L29.5694 20.626ZM29.3154 34.0499C26.8194 34.0079 18.2794 33.338 11.5694 26.626C4.83739 19.894 4.18539 11.324 4.14539 8.87795L8.15539 4.86795L13.3274 10.04L10.7414 12.626C10.5063 12.8609 10.3335 13.1506 10.2385 13.4691C10.1435 13.7876 10.1294 14.1247 10.1974 14.45C10.2454 14.68 11.4194 20.134 14.7394 23.454C18.0594 26.774 23.5134 27.948 23.7434 27.996C24.0685 28.0659 24.4059 28.0529 24.7247 27.9582C25.0434 27.8634 25.3332 27.6901 25.5674 27.454L28.1554 24.868L33.3274 30.04L29.3154 34.0499Z" fill="black"/>
</svg>
