<svg width="41" height="33" viewBox="0 0 41 33" fill="none" xmlns="http://www.w3.org/2000/svg">
<path d="M36.8219 0.0400391H4.82185C2.61585 0.0400391 0.821854 1.83404 0.821854 4.04004V28.04C0.821854 30.246 2.61585 32.04 4.82185 32.04H36.8219C39.0279 32.04 40.8219 30.246 40.8219 28.04V4.04004C40.8219 1.83404 39.0279 0.0400391 36.8219 0.0400391ZM36.8219 4.04004V5.06204L20.8219 17.508L4.82185 5.06404V4.04004H36.8219ZM4.82185 28.04V10.128L19.5939 21.618C19.9441 21.8931 20.3765 22.0427 20.8219 22.0427C21.2672 22.0427 21.6996 21.8931 22.0499 21.618L36.8219 10.128L36.8259 28.04H4.82185Z" fill="black"/>
</svg>
