<svg id="Layer_1" data-name="Layer 1" xmlns="http://www.w3.org/2000/svg" viewBox="0 0 399.83 414.31"><defs><style>.cls-1{fill:#121212;}.cls-2{fill:#a93c05;}</style></defs><title>logo</title><path class="cls-1" d="M154.35,314.17a.61.61,0,0,0,.77-.59v-15a.78.78,0,0,1,1.56,0v15.23a.61.61,0,0,0,.61.61h0a.61.61,0,0,0,.61-.61V297.06a.78.78,0,0,1,1.56,0v16.73a.61.61,0,0,0,.61.61h0a.61.61,0,0,0,.61-.61V296.31a.78.78,0,0,1,1.56,0v17.48a.61.61,0,0,0,.61.61h0a.61.61,0,0,0,.61-.61V296.31a.78.78,0,0,1,1.56,0v17.48a.61.61,0,0,0,.61.61h0a.61.61,0,0,0,.61-.61V296.31a.78.78,0,0,1,1.56,0v17.48a.61.61,0,0,0,.61.61h0a.61.61,0,0,0,.61-.61V296.31a.78.78,0,0,1,1.56,0v17.48a.61.61,0,0,0,.61.61h0a.61.61,0,0,0,.61-.61V296.31a.78.78,0,0,1,1.56,0v17.48a.61.61,0,0,0,.61.61h0a.61.61,0,0,0,.61-.61V296.31a.78.78,0,1,1,1.56,0v17.48a.61.61,0,0,0,.61.61h0a.61.61,0,0,0,.61-.61V296.31a.78.78,0,0,1,1.56,0v17.48a.61.61,0,0,0,.61.61h0a.61.61,0,0,0,.61-.61V296.31a.78.78,0,0,1,1.56,0v17.48a.61.61,0,0,0,.61.61h0a.61.61,0,0,0,.61-.61V296.31a.78.78,0,0,1,1.56,0v17.48a.61.61,0,0,0,.61.61h0a.61.61,0,0,0,.61-.61V296.31a.78.78,0,0,1,1.56,0v17.48a.61.61,0,0,0,.61.61h0a.61.61,0,0,0,.61-.61V296.31a.78.78,0,1,1,1.55,0v17.48a.61.61,0,0,0,.61.61h0a.61.61,0,0,0,.62-.61V296.31a.78.78,0,1,1,1.55,0v17.48a.61.61,0,0,0,.61.61h0a.61.61,0,0,0,.61-.61V296.31a.78.78,0,0,1,1.56,0v17.48a.61.61,0,0,0,.61.61h0a.61.61,0,0,0,.61-.61V296.31a.78.78,0,0,1,1.56,0v17.48a.61.61,0,0,0,.61.61h0a.61.61,0,0,0,.61-.61V296.31a.78.78,0,0,1,.78-.78h0a.78.78,0,0,1,.78.78v17.48a.61.61,0,0,0,.61.61h0a.61.61,0,0,0,.61-.61V296.31a.78.78,0,0,1,1.56,0v17.48a.61.61,0,0,0,.61.61h0a.61.61,0,0,0,.61-.61V296.31a.78.78,0,0,1,1.56,0v17.48a.61.61,0,0,0,.61.61h0a.61.61,0,0,0,.61-.61V296.31a.78.78,0,0,1,1.56,0v17.48a.61.61,0,0,0,.61.61h0a.61.61,0,0,0,.61-.61V296.31a.78.78,0,0,1,1.56,0v17.48a.61.61,0,0,0,.61.61h0a.61.61,0,0,0,.61-.61V296.31a.78.78,0,0,1,1.56,0v17.48a.61.61,0,0,0,.61.61h0a.61.61,0,0,0,.61-.61V296.31a.78.78,0,1,1,1.56,0v17.48a.61.61,0,0,0,.61.61h0a.61.61,0,0,0,.61-.61V296.31a.78.78,0,1,1,1.56,0v17.48a.61.61,0,0,0,.61.61h0a.61.61,0,0,0,.61-.61V296.31a.78.78,0,0,1,1.56,0v17.48a.61.61,0,0,0,.61.61h0a.61.61,0,0,0,.61-.61V296.31a.78.78,0,1,1,1.56,0v17.48a.61.61,0,0,0,.61.61h0a.61.61,0,0,0,.61-.61V296.31a.78.78,0,1,1,1.56,0v17.48a.61.61,0,0,0,.61.61h0a.61.61,0,0,0,.61-.61V296.31a.78.78,0,1,1,1.56,0v17.48a.61.61,0,0,0,.61.61h0a.61.61,0,0,0,.61-.61V296.31a.78.78,0,1,1,1.56,0v17.48a.61.61,0,0,0,.61.61h0a.61.61,0,0,0,.61-.61V296.31a.78.78,0,1,1,1.56,0v17.48a.61.61,0,0,0,.61.61h0a.61.61,0,0,0,.61-.61V296.31a.78.78,0,1,1,1.56,0v17.48a.61.61,0,0,0,.61.61h0a.61.61,0,0,0,.61-.61V296.31a.78.78,0,1,1,1.56,0v17.48a.61.61,0,0,0,.61.61h0a.61.61,0,0,0,.61-.61V297.06a.78.78,0,1,1,1.55,0v16.73a.61.61,0,0,0,.61.61h0a.61.61,0,0,0,.62-.61V298.56a.78.78,0,1,1,1.55,0v15a.62.62,0,0,0,.77.59,6.77,6.77,0,0,0,5.06-6.55v-9a6.76,6.76,0,0,0-5-6.56,192.84,192.84,0,0,0-94.83,0,6.76,6.76,0,0,0-5.06,6.56v9A6.77,6.77,0,0,0,154.35,314.17Z"/><path class="cls-2" d="M15.52,247.71H11.6L19,255a1.43,1.43,0,0,0,.72.22h3.35Z"/><polygon class="cls-2" points="30.3 255.21 22.66 247.71 18.74 247.71 26.37 255.21 30.3 255.21"/><path class="cls-1" d="M52.85,228v8.56a8.3,8.3,0,0,1-8.42,8.42H9.32a1.46,1.46,0,0,1-1.65-1.64V154.44c0-1,.55-1.57,1.65-1.57l34.89-.07q8.13,0,8.14,8.5v42.53a9.19,9.19,0,0,1-2.93,7.28q-.14.21-4.85,3.06a1.69,1.69,0,0,0,0,2.86q4.78,2.92,5.14,3.28A9.7,9.7,0,0,1,52.85,228Zm-31.4-19.41c0,1.14.55,1.71,1.64,1.71h8.42l.93-.36L38,206a1.58,1.58,0,0,0,.72-1.36V166.08q0-1.65-1.71-1.65H23.09a1.46,1.46,0,0,0-1.64,1.65Zm17.62,18.19a1.53,1.53,0,0,0-.78-1.35l-5.57-3.71-.92-.29H23.09A1.45,1.45,0,0,0,21.45,223v8.64a1.45,1.45,0,0,0,1.64,1.64H37.36c1.14,0,1.71-.55,1.71-1.64Z"/><path class="cls-2" d="M32,175.64a1.17,1.17,0,0,1,.28-.43l.08-.07.35-.21.15-.15a3.9,3.9,0,0,1,.64-.07h.92l-7.63-7.56H24.16v1.28l7.71,7.64.07-.22v-.14Z"/><polygon class="cls-2" points="31.87 179.21 24.16 171.64 24.16 175.5 31.87 183.06 31.87 179.21"/><polygon class="cls-2" points="31.87 186.2 24.16 178.71 24.16 182.56 31.87 190.05 31.87 186.2"/><polygon class="cls-2" points="31.87 193.26 24.16 185.7 24.16 189.56 31.87 197.12 31.87 193.26"/><polygon class="cls-2" points="31.87 200.33 24.16 192.76 24.16 196.62 31.87 204.18 31.87 200.33"/><polygon class="cls-2" points="31.08 207.47 31.23 207.39 31.58 207.18 24.16 199.83 24.16 203.68 28.01 207.47 31.08 207.47"/><polygon class="cls-2" points="24.16 206.9 24.16 207.47 24.8 207.47 24.16 206.9"/><polygon class="cls-2" points="33.94 230.59 27.37 224.16 24.16 224.16 24.16 224.81 30.01 230.59 33.94 230.59"/><polygon class="cls-2" points="24.16 228.02 24.16 230.59 26.73 230.59 24.16 228.02"/><polygon class="cls-2" points="37.43 255.21 29.8 247.71 25.87 247.71 33.51 255.21 37.43 255.21"/><polygon class="cls-2" points="35.93 169.15 33.94 167.15 30.01 167.15 35.93 173 35.93 169.15"/><polygon class="cls-2" points="36.29 227.38 31.51 224.16 31.37 224.16 30.58 224.16 36.29 229.73 36.29 227.38"/><polygon class="cls-2" points="44.57 255.21 37.01 247.71 33.08 247.71 40.72 255.21 44.57 255.21"/><polygon class="cls-2" points="51.78 255.21 44.14 247.71 40.22 247.71 47.85 255.21 51.78 255.21"/><path class="cls-2" d="M55,255.21a7.34,7.34,0,0,0,1.5-.15l.5-.14,1-.36.21-.07-8.35-8.2a15.06,15.06,0,0,1-2.78,1.07Z"/><path class="cls-2" d="M51,213.39l-1.57,1.07,8.35,8.28.36-.22.28-.21.22-.14.21-.07.29-.22.28-.21.07-.08.08-.07.14-.07.14-.07.29-.28-8.5-8.35-.21.21-.14.21Z"/><path class="cls-2" d="M60.2,253.28l.07-.07.28-.29.43-.42.29-.22.43-.64.21-.22v-.07l.07-.14-8.42-8.28a11.71,11.71,0,0,1-1.86,2Z"/><path class="cls-2" d="M61.48,219.31l.36-.57.14-.36.14-.28.15-.36c.09-.38.19-.78.28-1.21l-8.2-8.14A12.4,12.4,0,0,1,53.13,211Z"/><path class="cls-2" d="M55.77,224l-1.14-1.14a8.52,8.52,0,0,1,.5,1.57Z"/><path class="cls-2" d="M63.12,248.43v-.08a5.53,5.53,0,0,0,.15-1.28v-1.64l-7.78-7.71a13.84,13.84,0,0,1-.72,3.14L63,248.93l.07-.36Z"/><path class="cls-2" d="M55.13,163.65l7.64,7.56c-.05-.85-.12-1.61-.22-2.28l-.07-.14v-.22l-.07-.14-.07-.14a3.65,3.65,0,0,0-.36-1.07l-.07-.22-.07-.21-.07-.07-.07-.14-.5-.79L55,159.73l.07.78.07.79Z"/><polygon class="cls-2" points="55.13 203.83 55.06 204.82 54.99 205.82 62.77 213.53 62.77 209.68 55.13 202.11 55.13 203.83"/><polygon class="cls-2" points="62.77 174.43 55.13 166.86 55.13 170.72 62.77 178.28 62.77 174.43"/><polygon class="cls-2" points="62.77 181.49 55.13 173.93 55.13 177.78 62.77 185.34 62.77 181.49"/><polygon class="cls-2" points="62.77 188.55 55.13 180.99 55.13 184.84 62.77 192.41 62.77 188.55"/><polygon class="cls-2" points="55.13 191.91 62.77 199.4 62.77 195.55 55.13 188.06 55.13 191.91"/><polygon class="cls-2" points="55.13 198.9 62.77 206.47 62.77 202.61 55.13 195.05 55.13 198.9"/><path class="cls-2" d="M62.34,233.51l-.07-.21-.15-.15L62,233a7.88,7.88,0,0,0-.71-1.14l-.15-.21-.14-.22-.43-.43L55.41,226l.15,1.64,7.13,7-.28-.85Z"/><polygon class="cls-2" points="55.63 234.65 63.27 242.22 63.27 238.36 55.63 230.8 55.63 234.65"/><path class="cls-2" d="M79.75,247.71H75.82l7.28,7.07a1.4,1.4,0,0,0,1,.43h3.28Z"/><path class="cls-2" d="M94.3,255.21h.08v-.08L86.1,247a4.13,4.13,0,0,1-2.21.71h-1l7.63,7.5Z"/><path class="cls-2" d="M88.24,243.93a4,4,0,0,1-.57,1.5L96,253.56l.5-3.28-8-7.92Z"/><path class="cls-2" d="M88.88,239.65l8,7.92.43-2.71a.66.66,0,0,1,.22-.5v-.07l-8.14-8Z"/><path class="cls-1" d="M121.35,242.93a1.69,1.69,0,0,1-.36,1.43,1.62,1.62,0,0,1-1.28.57H109.5a1.48,1.48,0,0,1-1.64-1.36l-1.42-9a1.48,1.48,0,0,0-1.65-1.35H88.52a1.48,1.48,0,0,0-1.64,1.35l-1.35,9a1.53,1.53,0,0,1-1.64,1.36H73.68a1.62,1.62,0,0,1-1.28-.57,1.54,1.54,0,0,1-.29-1.43L89.31,154a1.44,1.44,0,0,1,1.57-1.36h11.77a1.46,1.46,0,0,1,1.57,1.43Zm-19-21.55a1.62,1.62,0,0,0,1.28-.57,1.57,1.57,0,0,0,.36-1.36L98.3,184.13a1.56,1.56,0,0,0-1.64-1.43A1.5,1.5,0,0,0,95,184.13l-5.78,35.32a1.53,1.53,0,0,0,.35,1.36,1.66,1.66,0,0,0,1.29.57Z"/><polygon class="cls-2" points="92.24 218.24 92.16 218.67 92.59 218.67 92.24 218.24"/><polygon class="cls-2" points="92.16 235.94 99.8 243.5 103.72 243.5 96.09 235.94 92.16 235.94"/><polygon class="cls-2" points="95.73 218.67 99.66 218.67 93.23 212.25 92.66 215.6 95.73 218.67"/><polygon class="cls-2" points="100.01 212.03 94.16 206.25 93.66 209.61 100.73 216.6 100.01 212.03"/><polygon class="cls-2" points="98.66 203.75 95.16 200.33 94.59 203.61 99.37 208.32 98.66 203.75"/><polygon class="cls-2" points="97.3 195.48 96.16 194.34 95.59 197.62 98.09 200.04 97.3 195.48"/><polygon class="cls-2" points="96.66 191.19 96.59 191.62 96.73 191.84 96.66 191.19"/><polygon class="cls-2" points="104.01 236.79 103.15 235.94 99.23 235.94 104.72 241.36 104.01 236.79"/><polygon class="cls-2" points="108.5 161.72 115.5 168.57 114.64 164.29 114.64 164.22 114.5 163.86 114.28 163.58 107.58 156.94 108.5 161.72"/><polygon class="cls-2" points="116.21 172.35 109.29 165.51 110.15 170.29 117.14 177.14 116.21 172.35"/><polygon class="cls-2" points="117.85 180.99 110.93 174.07 111.79 178.85 118.78 185.7 117.85 180.99"/><path class="cls-2" d="M111.57,247.71l7.14,7a1.66,1.66,0,0,0,1.21.5h2.72l-7.57-7.5Z"/><polygon class="cls-2" points="119.49 189.56 112.57 182.7 113.5 187.41 120.42 194.26 119.49 189.56"/><polygon class="cls-2" points="121.14 198.12 114.22 191.27 115.14 196.05 122.06 202.9 121.14 198.12"/><polygon class="cls-2" points="122.85 206.68 115.86 199.83 116.78 204.61 123.7 211.46 122.85 206.68"/><polygon class="cls-2" points="118.42 213.17 125.35 220.03 124.49 215.24 117.5 208.39 118.42 213.17"/><path class="cls-2" d="M118.21,247.71l7.64,7.5h3.85l-8.06-8a3.94,3.94,0,0,1-1.93.5Z"/><polygon class="cls-2" points="120.06 221.74 127.06 228.59 126.13 223.81 119.14 216.96 120.06 221.74"/><polygon class="cls-2" points="121.71 230.3 128.7 237.15 127.77 232.44 120.78 225.59 121.71 230.3"/><polygon class="cls-2" points="123.35 238.87 130.34 245.72 129.41 241 122.42 234.15 123.35 238.87"/><path class="cls-2" d="M131.7,254.06v-.14l.07-.07v-.64l-.71-3.64-7-6.92a4.25,4.25,0,0,1-.78,3.14Z"/><path class="cls-2" d="M148.18,247.71h-3.93l7.21,7.14a1.7,1.7,0,0,0,1,.36h3.35Z"/><path class="cls-2" d="M152.32,247.71l7.63,7.5h3a1.79,1.79,0,0,0,.72-.22l-8.43-8.28a4.31,4.31,0,0,1-2.71,1Z"/><path class="cls-1" d="M185.93,242.43a1.58,1.58,0,0,1,.07,1.64,1.63,1.63,0,0,1-1.5.86H174.08a1.41,1.41,0,0,1-1.35-.79l-6.5-10-7.63-11.91a1.74,1.74,0,0,0-1.5-.86H156c-1.19,0-1.79.62-1.79,1.86v20a1.45,1.45,0,0,1-1.64,1.64H142a1.45,1.45,0,0,1-1.64-1.64V154.44A1.45,1.45,0,0,1,142,152.8h34.9q8.28,0,8.28,8.5V214c0,3.24-1.31,5.42-3.93,6.57a20,20,0,0,1-5.92.78,1.68,1.68,0,0,0-1.43,2.5Zm-14.42-76.14a1.45,1.45,0,0,0-1.64-1.64H155.81a1.45,1.45,0,0,0-1.64,1.64v42.25c0,1.14.55,1.71,1.64,1.71h14.06c1.1,0,1.64-.57,1.64-1.71Z"/><polygon class="cls-2" points="156.96 243.29 156.88 243.72 156.74 244.14 164.59 251.85 164.59 248 156.96 240.43 156.96 243.29"/><polygon class="cls-2" points="164.59 176.57 156.96 169 156.96 172.86 164.59 180.42 164.59 176.57"/><polygon class="cls-2" points="164.59 184.49 156.96 176.92 156.96 180.78 164.59 188.34 164.59 184.49"/><polygon class="cls-2" points="164.59 192.41 156.96 184.92 156.96 188.77 164.59 196.26 164.59 192.41"/><polygon class="cls-2" points="164.59 200.4 156.96 192.84 156.96 196.69 164.59 204.25 164.59 200.4"/><polygon class="cls-2" points="163.74 207.47 156.96 200.76 156.96 204.61 159.81 207.47 163.74 207.47"/><polygon class="cls-2" points="156.96 224.74 156.96 228.45 163.38 234.8 156.96 224.74"/><polygon class="cls-2" points="156.96 236.37 164.59 243.93 164.59 240.08 156.96 232.51 156.96 236.37"/><polygon class="cls-2" points="168.8 174.93 168.8 172.71 163.38 167.43 159.46 167.43 167.09 174.93 168.8 174.93"/><polygon class="cls-2" points="168.8 167.43 167.52 167.43 168.8 168.65 168.8 167.43"/><polygon class="cls-2" points="176.51 247.71 184 255.13 184.5 255.21 188 255.21 180.44 247.71 176.51 247.71"/><path class="cls-2" d="M178.51,225.88l6.28,6.13v-.07a1.59,1.59,0,0,1,.92-.35c.81,0,1.62,0,2.43-.07l-7.92-7.78a25.62,25.62,0,0,1-2.93.28Z"/><path class="cls-2" d="M191.64,230.87h.07a8,8,0,0,0,1.92-1.14l.08-.07.21-.22.14-.07L185.5,221a7.54,7.54,0,0,1-2.21,1.64Z"/><path class="cls-2" d="M194.92,255.21a1.78,1.78,0,0,0,.78-.22l.08-.07-8.42-8.35a4.21,4.21,0,0,1-2.86,1.14l7.64,7.5Z"/><path class="cls-2" d="M194,249.07l-6.78-10.56-1.5-1.43,2.5,3.85a4.56,4.56,0,0,1,.65,3.07Z"/><path class="cls-2" d="M195.42,226.66l.07-.14v-.29c0-.33.1-.71.14-1.14V223l-7.78-7.7a10.87,10.87,0,0,1-.71,3.21Z"/><path class="cls-2" d="M188,163.79l7.63,7.5a12.26,12.26,0,0,0-.21-2.36l-.07-.14v-.14l-.07-.22-.07-.14a10,10,0,0,0-.36-1l-.07-.21-.07-.22-.07-.14-.08-.07-.42-.65-6.29-6.2.08.71.07.79Z"/><polygon class="cls-2" points="195.63 175.42 188 167.86 188 171.71 195.63 179.28 195.63 175.42"/><polygon class="cls-2" points="195.63 183.34 188 175.78 188 179.63 195.63 187.2 195.63 183.34"/><polygon class="cls-2" points="188 183.7 188 187.56 195.63 195.12 195.63 191.27 188 183.7"/><polygon class="cls-2" points="188 195.55 195.63 203.04 195.63 199.19 188 191.69 188 195.55"/><polygon class="cls-2" points="188 203.47 195.63 211.03 195.63 207.18 188 199.62 188 203.47"/><polygon class="cls-2" points="188 211.39 195.63 218.95 195.63 215.1 188 207.54 188 211.39"/><path class="cls-2" d="M218.11,247.71h-3.93L221.6,255a1.43,1.43,0,0,0,.72.22h3.35Z"/><polygon class="cls-2" points="232.88 255.21 225.24 247.71 221.32 247.71 228.95 255.21 232.88 255.21"/><path class="cls-1" d="M255.43,228v8.56a8.3,8.3,0,0,1-8.42,8.42H211.9a1.45,1.45,0,0,1-1.64-1.64V154.44c0-1,.54-1.57,1.64-1.57l34.89-.07q8.15,0,8.14,8.5v42.53a9.19,9.19,0,0,1-2.93,7.28q-.13.21-4.85,3.06a1.69,1.69,0,0,0,0,2.86q4.78,2.92,5.14,3.28A9.7,9.7,0,0,1,255.43,228ZM224,208.54c0,1.14.55,1.71,1.64,1.71h8.42l.93-.36,5.56-3.92a1.58,1.58,0,0,0,.72-1.36V166.08q0-1.65-1.71-1.65H225.67a1.46,1.46,0,0,0-1.64,1.65Zm17.62,18.19a1.53,1.53,0,0,0-.78-1.35l-5.57-3.71-.92-.29h-8.71A1.45,1.45,0,0,0,224,223v8.64a1.45,1.45,0,0,0,1.64,1.64h14.27c1.14,0,1.71-.55,1.71-1.64Z"/><path class="cls-2" d="M234.59,175.64a1.17,1.17,0,0,1,.28-.43l.08-.07.35-.21.15-.15a3.9,3.9,0,0,1,.64-.07H237l-7.64-7.56h-2.64v1.28l7.71,7.64.07-.22v-.14Z"/><polygon class="cls-2" points="234.45 179.21 226.74 171.64 226.74 175.5 234.45 183.06 234.45 179.21"/><polygon class="cls-2" points="234.45 186.2 226.74 178.71 226.74 182.56 234.45 190.05 234.45 186.2"/><polygon class="cls-2" points="234.45 193.26 226.74 185.7 226.74 189.56 234.45 197.12 234.45 193.26"/><polygon class="cls-2" points="234.45 200.33 226.74 192.76 226.74 196.62 234.45 204.18 234.45 200.33"/><polygon class="cls-2" points="233.66 207.47 233.81 207.39 234.16 207.18 226.74 199.83 226.74 203.68 230.59 207.47 233.66 207.47"/><polygon class="cls-2" points="226.74 206.9 226.74 207.47 227.38 207.47 226.74 206.9"/><polygon class="cls-2" points="236.52 230.59 229.95 224.16 226.74 224.16 226.74 224.81 232.59 230.59 236.52 230.59"/><polygon class="cls-2" points="226.74 228.02 226.74 230.59 229.31 230.59 226.74 228.02"/><polygon class="cls-2" points="240.01 255.21 232.38 247.71 228.45 247.71 236.09 255.21 240.01 255.21"/><polygon class="cls-2" points="238.51 169.15 236.52 167.15 232.59 167.15 238.51 173 238.51 169.15"/><polygon class="cls-2" points="238.87 227.38 234.09 224.16 233.95 224.16 233.16 224.16 238.87 229.73 238.87 227.38"/><polygon class="cls-2" points="247.15 255.21 239.59 247.71 235.66 247.71 243.3 255.21 247.15 255.21"/><polygon class="cls-2" points="254.36 255.21 246.72 247.71 242.79 247.71 250.43 255.21 254.36 255.21"/><path class="cls-2" d="M257.57,255.21a7.34,7.34,0,0,0,1.5-.15l.5-.14,1-.36.21-.07-8.35-8.2a15.06,15.06,0,0,1-2.78,1.07Z"/><path class="cls-2" d="M253.57,213.39,252,214.46l8.35,8.28.36-.22.28-.21.22-.14.21-.07.29-.22.28-.21.07-.08.08-.07.14-.07.14-.07.29-.28-8.49-8.35L254,213l-.14.21Z"/><path class="cls-2" d="M262.78,253.28l.07-.07.28-.29.43-.42.29-.22.43-.64.21-.22v-.07l.07-.14-8.42-8.28a11.63,11.63,0,0,1-1.85,2Z"/><path class="cls-2" d="M264.06,219.31l.36-.57.14-.36.14-.28.15-.36c.09-.38.19-.78.28-1.21l-8.2-8.14a12.4,12.4,0,0,1-1.22,2.64Z"/><path class="cls-2" d="M258.35,224l-1.14-1.14a8.52,8.52,0,0,1,.5,1.57Z"/><path class="cls-2" d="M265.7,248.43v-.08a5.53,5.53,0,0,0,.15-1.28v-1.64l-7.78-7.71a13.33,13.33,0,0,1-.72,3.14l8.21,8.07.07-.36Z"/><path class="cls-2" d="M257.71,163.65l7.64,7.56c-.05-.85-.12-1.61-.22-2.28l-.07-.14v-.22l-.07-.14-.07-.14a3.65,3.65,0,0,0-.36-1.07l-.07-.22-.07-.21-.07-.07-.07-.14-.5-.79-6.21-6.06.07.78.07.79Z"/><polygon class="cls-2" points="257.71 203.83 257.64 204.82 257.57 205.82 265.35 213.53 265.35 209.68 257.71 202.11 257.71 203.83"/><polygon class="cls-2" points="265.35 174.43 257.71 166.86 257.71 170.72 265.35 178.28 265.35 174.43"/><polygon class="cls-2" points="265.35 181.49 257.71 173.93 257.71 177.78 265.35 185.34 265.35 181.49"/><polygon class="cls-2" points="265.35 188.55 257.71 180.99 257.71 184.84 265.35 192.41 265.35 188.55"/><polygon class="cls-2" points="257.71 191.91 265.35 199.4 265.35 195.55 257.71 188.06 257.71 191.91"/><polygon class="cls-2" points="257.71 198.9 265.35 206.47 265.35 202.61 257.71 195.05 257.71 198.9"/><path class="cls-2" d="M264.92,233.51l-.07-.21-.15-.15-.14-.14a7.88,7.88,0,0,0-.71-1.14l-.14-.21-.15-.22-.43-.43L258,226l.14,1.64,7.13,7-.28-.85Z"/><polygon class="cls-2" points="258.21 234.65 265.85 242.22 265.85 238.36 258.21 230.8 258.21 234.65"/><path class="cls-1" d="M316.5,152.8a1.45,1.45,0,0,1,1.64,1.64v8.93A1.45,1.45,0,0,1,316.5,165H295.74a1.45,1.45,0,0,0-1.65,1.64v41.89q0,1.71,1.65,1.71h17.41a1.45,1.45,0,0,1,1.64,1.64v7.85a1.45,1.45,0,0,1-1.64,1.64H295.74a1.46,1.46,0,0,0-1.65,1.64v8.07q0,1.71,1.65,1.71h21.12a1.45,1.45,0,0,1,1.64,1.64v8.85a1.45,1.45,0,0,1-1.64,1.64H282a1.45,1.45,0,0,1-1.64-1.64V154.44A1.45,1.45,0,0,1,282,152.8Z"/><path class="cls-2" d="M288.17,247.71h-3.92l7.49,7.35a1.68,1.68,0,0,0,.64.15h3.43Z"/><polygon class="cls-2" points="302.73 255.21 295.17 247.71 291.24 247.71 298.88 255.21 302.73 255.21"/><path class="cls-2" d="M304.51,176.92a2.49,2.49,0,0,1,.08-.64h.07a1,1,0,0,1,.28-.5l.07-.07.29-.14-7.85-7.78h-.64V171l7.7,7.56Z"/><polygon class="cls-2" points="304.51 181.56 296.81 174 296.81 177.85 304.51 185.41 304.51 181.56"/><polygon class="cls-2" points="304.51 188.41 296.81 180.85 296.81 184.7 304.51 192.27 304.51 188.41"/><polygon class="cls-2" points="304.51 195.26 296.81 187.7 296.81 191.55 304.51 199.12 304.51 195.26"/><polygon class="cls-2" points="304.51 202.11 296.81 194.55 296.81 198.4 304.51 205.97 304.51 202.11"/><polygon class="cls-2" points="302.94 207.47 296.81 201.4 296.81 205.25 299.09 207.47 302.94 207.47"/><polygon class="cls-2" points="305.01 230.02 299.02 224.16 296.81 224.16 296.81 225.81 301.09 230.02 305.01 230.02"/><polygon class="cls-2" points="296.81 228.8 296.81 230.02 298.02 230.02 296.81 228.8"/><polygon class="cls-2" points="309.72 255.21 302.09 247.71 298.16 247.71 305.8 255.21 309.72 255.21"/><polygon class="cls-2" points="312 175.28 304.37 167.79 300.44 167.79 308.08 175.28 312 175.28"/><polygon class="cls-2" points="311.94 230.02 306.01 224.16 302.09 224.16 308.01 230.02 311.94 230.02"/><polygon class="cls-2" points="316.64 255.21 309.01 247.71 305.16 247.71 312.72 255.21 316.64 255.21"/><polygon class="cls-2" points="319 175.28 311.36 167.79 307.44 167.79 315.07 175.28 319 175.28"/><path class="cls-2" d="M316.86,230a4.16,4.16,0,0,1,3.35,1.64h.36l-7.64-7.5H309l6,5.86Z"/><polygon class="cls-2" points="323.64 255.21 316 247.71 312.08 247.71 319.71 255.21 323.64 255.21"/><path class="cls-2" d="M325.92,175.28,318,167.43a4,4,0,0,1-1.5.36h-2.14l7.64,7.49Z"/><path class="cls-2" d="M323.57,231.66a1.52,1.52,0,0,0,1-.36l.07-.07.07-.07h.07l.07-.07.07-.22.14-.14v-.07l.08-.14.07-.22v-.93l-8-7.92a4.45,4.45,0,0,1-1.92,2.07Z"/><polygon class="cls-2" points="317.57 218.81 325.21 226.38 325.21 222.52 317.57 214.96 317.57 218.81"/><path class="cls-2" d="M326.63,255.21h.65a1.39,1.39,0,0,0,.92-.36h.15l.07-.14.07-.07.14-.22.15-.14v-.15l.07-.07v-.21l.07-.29-8.28-8.13a4.69,4.69,0,0,1-2,1.86Z"/><path class="cls-2" d="M328.42,174.36v-.15l.07-.07.07-.21V171l-7.71-7.56a4.1,4.1,0,0,1-1.06,2.78l8.49,8.35v-.07Z"/><polygon class="cls-2" points="320.93 160.51 328.56 168 328.56 164.72 328.49 164.36 328.42 164.15 328.42 164.08 328.42 164.01 320.93 156.66 320.93 160.51"/><polygon class="cls-2" points="321.28 243 328.92 250.57 328.92 246.72 321.28 239.15 321.28 243"/><path class="cls-2" d="M348.25,247.71h-3.92l7.21,7.14a1.68,1.68,0,0,0,1,.36h3.36Z"/><path class="cls-2" d="M352.39,247.71l7.64,7.5h3a1.79,1.79,0,0,0,.72-.22l-8.42-8.28a4.34,4.34,0,0,1-2.72,1Z"/><path class="cls-1" d="M386,242.43a1.54,1.54,0,0,1,.07,1.64,1.62,1.62,0,0,1-1.49.86H374.16a1.44,1.44,0,0,1-1.36-.79l-6.49-10-7.64-11.91a1.74,1.74,0,0,0-1.5-.86H356c-1.19,0-1.78.62-1.78,1.86v20a1.46,1.46,0,0,1-1.65,1.64H342.12a1.46,1.46,0,0,1-1.65-1.64V154.44a1.46,1.46,0,0,1,1.65-1.64H377q8.28,0,8.28,8.5V214c0,3.24-1.31,5.42-3.93,6.57a19.9,19.9,0,0,1-5.92.78,1.68,1.68,0,0,0-1.43,2.5Zm-14.41-76.14a1.45,1.45,0,0,0-1.64-1.64H355.89a1.45,1.45,0,0,0-1.64,1.64v42.25c0,1.14.54,1.71,1.64,1.71H370c1.09,0,1.64-.57,1.64-1.71Z"/><polygon class="cls-2" points="357.03 243.29 356.96 243.72 356.81 244.14 364.67 251.85 364.67 248 357.03 240.43 357.03 243.29"/><polygon class="cls-2" points="364.67 176.57 357.03 169 357.03 172.86 364.67 180.42 364.67 176.57"/><polygon class="cls-2" points="364.67 184.49 357.03 176.92 357.03 180.78 364.67 188.34 364.67 184.49"/><polygon class="cls-2" points="364.67 192.41 357.03 184.92 357.03 188.77 364.67 196.26 364.67 192.41"/><polygon class="cls-2" points="364.67 200.4 357.03 192.84 357.03 196.69 364.67 204.25 364.67 200.4"/><polygon class="cls-2" points="363.81 207.47 357.03 200.76 357.03 204.61 359.88 207.47 363.81 207.47"/><polygon class="cls-2" points="357.03 224.74 357.03 228.45 363.45 234.8 357.03 224.74"/><polygon class="cls-2" points="357.03 236.37 364.67 243.93 364.67 240.08 357.03 232.51 357.03 236.37"/><polygon class="cls-2" points="368.88 174.93 368.88 172.71 363.45 167.43 359.53 167.43 367.16 174.93 368.88 174.93"/><polygon class="cls-2" points="368.88 167.43 367.59 167.43 368.88 168.65 368.88 167.43"/><polygon class="cls-2" points="376.58 247.71 384.08 255.13 384.58 255.21 388.07 255.21 380.51 247.71 376.58 247.71"/><path class="cls-2" d="M378.58,225.88l6.28,6.13v-.07a1.59,1.59,0,0,1,.93-.35c.81,0,1.61,0,2.42-.07l-7.92-7.78a25.43,25.43,0,0,1-2.92.28Z"/><path class="cls-2" d="M391.71,230.87h.07a8.27,8.27,0,0,0,1.93-1.14l.07-.07.22-.22.14-.07L385.58,221a7.45,7.45,0,0,1-2.22,1.64Z"/><path class="cls-2" d="M395,255.21a1.86,1.86,0,0,0,.79-.22l.07-.07-8.42-8.35a4.21,4.21,0,0,1-2.85,1.14l7.63,7.5Z"/><path class="cls-2" d="M394.07,249.07l-6.78-10.56-1.5-1.43,2.5,3.85a4.56,4.56,0,0,1,.64,3.07Z"/><path class="cls-2" d="M395.49,226.66l.08-.14v-.29c0-.33.09-.71.14-1.14V223l-7.78-7.7a10.87,10.87,0,0,1-.72,3.21Z"/><path class="cls-2" d="M388.07,163.79l7.64,7.5a11.48,11.48,0,0,0-.22-2.36l-.07-.14v-.14l-.07-.22-.07-.14a8,8,0,0,0-.36-1l-.07-.21-.07-.22-.07-.14-.07-.07-.43-.65-6.28-6.2.07.71.07.79Z"/><polygon class="cls-2" points="395.71 175.42 388.07 167.86 388.07 171.71 395.71 179.28 395.71 175.42"/><polygon class="cls-2" points="395.71 183.34 388.07 175.78 388.07 179.63 395.71 187.2 395.71 183.34"/><polygon class="cls-2" points="388.07 183.7 388.07 187.56 395.71 195.12 395.71 191.27 388.07 183.7"/><polygon class="cls-2" points="388.07 195.55 395.71 203.04 395.71 199.19 388.07 191.69 388.07 195.55"/><polygon class="cls-2" points="388.07 203.47 395.71 211.03 395.71 207.18 388.07 199.62 388.07 203.47"/><polygon class="cls-2" points="388.07 211.39 395.71 218.95 395.71 215.1 388.07 207.54 388.07 211.39"/><path class="cls-1" d="M255.42,91c-.48-3.28-4.5-6.79-10.39-6.8a20.75,20.75,0,0,0-15.17,6.63c-3.71,4-2.55,6.16-4.78,9.08s-5,4.92-11.28,5.89a1.27,1.27,0,0,1-1.31-.83,1.32,1.32,0,0,0-1.86-.76c-.55.31-.86,1.3-1.16,1.47s-7.12,1.71-13.35,3.43c-6,1.65-34.8,10.13-48.22,16.7-.36.17-.26.73.12.69,5.37-.52,21.45-2.23,33-4.84,12.4-2.81,24.1-5.49,26.62-6.07a1.55,1.55,0,0,0,.86-.52l5.43-6.06a4.52,4.52,0,0,1,2.59-1.47c2.55-.43,8-1.67,12.06-4.94a.48.48,0,0,1,.78.22c.19.63.55,1.46,1.18,1.58a1.38,1.38,0,0,0,1.78-1.18c0-.72-.39-2.12,1.5-2.09s12.5.94,16.86-1.26S255.91,94.25,255.42,91Zm-57.15,24.22a2.55,2.55,0,0,1-1.36-3.36,2.45,2.45,0,1,1,1.36,3.36ZM253,95.88c-2.08,3.2-6,4.21-10.37,4.11s-8.39,0-9.23-.14-.79-.92,0-2.86c1.22-3.07,3.33-8.26,6.88-10.08a11.49,11.49,0,0,1,10.75.37A6.18,6.18,0,0,1,253,95.88Z"/><path class="cls-1" d="M198,111.05a2.3,2.3,0,0,0-.64,2.55,1.79,1.79,0,0,0,2.12,1.09Z"/><path class="cls-1" d="M198.88,110.6l1.49,3.64a2.31,2.31,0,0,0,.63-2.55A1.79,1.79,0,0,0,198.88,110.6Z"/><path class="cls-1" d="M183.5,112.17,197.68,108c.33-.09.35-.59,0-.66-9-2.18-22.11-5.41-30.94-7.83-10.11-2.77-15.1-1.12-16.86-.21a.49.49,0,0,0,0,.86c5.7,2.9,21,8.22,32.21,12A2.33,2.33,0,0,0,183.5,112.17Z"/><path class="cls-1" d="M255.43,136.82c1-3.4.47-7-3.93-9.39s-16-1.85-18-1.88-1.42-1.47-1.33-2.22-.63-1.47-1.76-1.29a2,2,0,0,0-1.21,1,1.07,1.07,0,0,1-1.6.38c-4.47-3.7-10.75-5-12.77-5.32a1.72,1.72,0,0,1-1.09-.66l-2.81-3.63a.38.38,0,0,0-.59,0l-1.5,1.67a2,2,0,0,1-1,.63l-6.67,1.52c-.2,0-.23.36,0,.41,3.71,1,6.59,1.81,6.77,1.92s.49,1.23,1,1.57a1.56,1.56,0,0,0,2.12-.73,1.54,1.54,0,0,1,1.54-.82c6.65,1.22,9.34,3.4,11.35,6.51s.45,5.27,3.89,9.6a20.49,20.49,0,0,0,15.46,7.41C249.61,143.73,254.45,140.22,255.43,136.82Zm-5.27,3.68a12.92,12.92,0,0,1-11.67,0c-3.58-2-5.13-7.48-6-10.71-.56-2-.51-2.82.42-3s5.21.13,10,.17,8.83,1.22,10.63,4.63S253.22,138.86,250.16,140.5Z"/><path class="cls-2" d="M384.72,142.45a192.44,192.44,0,0,0-365.92,0l-5.35-1.75a198.07,198.07,0,0,1,376.62,0Z"/><path class="cls-2" d="M374.89,142.49a183.1,183.1,0,0,0-346.25,0l-5.32-1.83a188.73,188.73,0,0,1,356.89,0Z"/><path class="cls-2" d="M201.76,408A196.17,196.17,0,0,1,82.33,367.92,199.52,199.52,0,0,1,12,266.49l5.39-1.61c24.06,80.95,99.9,137.49,184.42,137.49s160.36-56.54,184.43-137.49l5.39,1.61A199.58,199.58,0,0,1,321.2,367.92,196.22,196.22,0,0,1,201.76,408Z"/><path class="cls-2" d="M201.76,398.65A187,187,0,0,1,89.06,361.3a190.35,190.35,0,0,1-67.34-94.77l5.37-1.69a183.1,183.1,0,0,0,349.35,0l5.37,1.69a190.37,190.37,0,0,1-67.35,94.77A187,187,0,0,1,201.76,398.65Z"/><path class="cls-2" d="M325.94,142a137.94,137.94,0,0,0-248.35,0l-1.79-.87a139.93,139.93,0,0,1,251.92,0Z"/><path class="cls-1" d="M63.82,117.13a3.91,3.91,0,0,1,2.43-3.82,1.93,1.93,0,0,1,2.83,1.8,4.14,4.14,0,0,1-2.43,3.82A2,2,0,0,1,63.82,117.13Z"/><path class="cls-1" d="M72.6,104.3a3.89,3.89,0,0,1,2.79-3.57A1.92,1.92,0,0,1,78,102.79a4.18,4.18,0,0,1-2.79,3.58A2,2,0,0,1,72.6,104.3Z"/><path class="cls-1" d="M82.6,92.35a3.91,3.91,0,0,1,3.11-3.29,1.93,1.93,0,0,1,2.44,2.31A4.16,4.16,0,0,1,85,94.66,2,2,0,0,1,82.6,92.35Z"/><path class="cls-1" d="M93.68,81.41a3.89,3.89,0,0,1,3.42-3A1.92,1.92,0,0,1,99.3,81a4.17,4.17,0,0,1-3.41,3A2,2,0,0,1,93.68,81.41Z"/><path class="cls-1" d="M105.74,71.59A3.93,3.93,0,0,1,109.43,69a1.93,1.93,0,0,1,1.95,2.73,4.17,4.17,0,0,1-3.68,2.64A2,2,0,0,1,105.74,71.59Z"/><path class="cls-1" d="M133.24,70l-1.5.79L115.4,54.51a2,2,0,0,0-2.66-.5l-.3.16-.26-.5,7.93-4.18.27.5-.17.09c-1,.52-1.24,1.18-.72,1.75l11.27,12.08-1-5.5c-.5-2.92-1-5.41-1.39-7.5a33.25,33.25,0,0,0-.7-3.39c-.39-.76-1-.85-2.52,0l-.27-.51,6.1-3.21.27.51a3.1,3.1,0,0,0-1.88,3.16Z"/><path class="cls-1" d="M148.72,37.28l.19.54-.23.08c-1.68.74-1.48,1.47-1.19,2.27l6.41,18.27c.33.94.64,1.67,2.31,1.2l.41-.15.2.57-8.69,3-.2-.57.55-.19c1.69-.71,1.57-1.5,1.19-2.43l-6.42-18.26c-.24-.83-.62-1.49-2.49-1l-.32.11-.18-.54Z"/><path class="cls-1" d="M173.72,31.27,180.64,30l.1.56-.61.12c-1.38.25-1.87,1.29-1.54,3.12l3.78,20.47-1.33.25-15.84-16,2.9,15.73c.24,1.3,1.12,1.83,2.59,1.56l.38-.07.11.59-6.73,1.25-.11-.6.42-.07c1.43-.27,2-1.07,1.77-2.37l-3.25-17.63c-.37-2-1.27-2.89-2.74-2.61l-.52.09-.1-.56,5.78-1.07L179.41,47,177,34.08c-.34-1.83-1.17-2.62-2.5-2.38l-.71.14Z"/><path class="cls-1" d="M209.78,28.94l.07,5.43H209c-.36-2.17-1.2-3.56-2.41-4.08a6,6,0,0,0-3-.57h-.53l.24,21c0,1.25.7,1.88,2.05,1.87h.77v.61l-9.88.11v-.61h.82c1.74-.2,1.82-.88,1.76-1.91l-.25-21H198a6.39,6.39,0,0,0-3.07.64c-1.15.55-2,2-2.27,4.14h-.82l-.06-5.43Z"/><path class="cls-1" d="M226.31,31.7a12.49,12.49,0,0,0,4.15-.93l3,23.23a2.41,2.41,0,0,0,2.35,2.15l-.1.6-9.05-1.44.1-.6c1.66.26,2.09,0,2.07-1.05l-.09-.7c-.08-1-.35-3.27-.62-5.31l-5.8-.92-2.3,5.49c-.26.72.12,1.39,2,1.73l-.1.6-6.76-1.07.1-.61c1.9.31,2.67-.22,3.31-1.46l7.89-17.91Zm1.76,15-1.25-10.54-4.09,9.69Z"/><path class="cls-1" d="M248.75,48.22c-1.53,4.57-2,7.75-1.61,9.52a3.63,3.63,0,0,0,2.67,3c1.5.51,3,.18,3.32-.8l2.39-7.12c.24-.75.41-1.41-1.32-2l-.32-.1.2-.61,8.37,2.8-.21.61L262,53.4c-1.74-.58-2,.11-2.25.79l-3.1,9.25-.82-.28c.13-.4-.72-1-1.32-1.23a6.58,6.58,0,0,0-2.24-.15,6.86,6.86,0,0,1-2.69-.3,8.37,8.37,0,0,1-5.46-5.86,15,15,0,0,1,.24-9.23A13,13,0,0,1,250,39.21,9.41,9.41,0,0,1,258.17,38c.87.29,2.25,1.32,2.85,1.52s1.06.17,1.3-.09l.78.26-1.84,5.49-.78-.26q.43-5.18-2.51-6.16C254.72,37.7,251.26,40.73,248.75,48.22Z"/><path class="cls-1" d="M281.83,49.55l-4.95,9.26,1.23.66c1.57.84,3.26.77,3.93-.49l.37-.7.85.46-3.52,6.58-.85-.45.54-1c.69-1.29-.11-2.86-1.69-3.7l-1.23-.66-4.86,9.1c-.33.6-.14,1.07.54,1.43l1.92,1a4.93,4.93,0,0,0,3,.74c1.22-.12,2.58-1.13,4-3l.76.41L279,74.57l-14.29-7.64.29-.54.55.3a1.64,1.64,0,0,0,2.47-.83l9.12-17.07c.45-.73.72-1.44-.83-2.43l-.47-.25.27-.5L289.89,53l-2.56,4.78-.76-.41c1-2.73.7-4.89-2.36-6.52Z"/><path class="cls-1" d="M294,68.9a3.92,3.92,0,0,1,3.68,2.64,1.93,1.93,0,0,1-1.95,2.73,4.18,4.18,0,0,1-3.69-2.64A2,2,0,0,1,294,68.9Z"/><path class="cls-1" d="M306.36,78.37a3.91,3.91,0,0,1,3.42,3,1.93,1.93,0,0,1-2.21,2.53,4.18,4.18,0,0,1-3.42-3A2,2,0,0,1,306.36,78.37Z"/><path class="cls-1" d="M317.72,89a3.91,3.91,0,0,1,3.12,3.29,1.93,1.93,0,0,1-2.44,2.31,4.19,4.19,0,0,1-3.12-3.29A2,2,0,0,1,317.72,89Z"/><path class="cls-1" d="M328.06,100.63a3.91,3.91,0,0,1,2.79,3.57,1.94,1.94,0,0,1-2.65,2.07,4.2,4.2,0,0,1-2.79-3.58A2,2,0,0,1,328.06,100.63Z"/><path class="cls-1" d="M337.23,113.22a3.93,3.93,0,0,1,2.44,3.83,1.94,1.94,0,0,1-2.84,1.8A4.16,4.16,0,0,1,334.4,115,2,2,0,0,1,337.23,113.22Z"/><path class="cls-1" d="M58.89,280.87a3.9,3.9,0,0,1,2.07,4,1.93,1.93,0,0,1-3,1.54,4.17,4.17,0,0,1-2.08-4A2,2,0,0,1,58.89,280.87Z"/><path class="cls-1" d="M66,293.6a3.92,3.92,0,0,1,2.43,3.82,1.93,1.93,0,0,1-2.83,1.8,4.18,4.18,0,0,1-2.44-3.82A2,2,0,0,1,66,293.6Z"/><path class="cls-1" d="M74.13,305.61a3.91,3.91,0,0,1,2.78,3.58,1.94,1.94,0,0,1-2.66,2.06,4.18,4.18,0,0,1-2.77-3.59A2,2,0,0,1,74.13,305.61Z"/><path class="cls-1" d="M83.35,316.79a3.91,3.91,0,0,1,3.08,3.32A1.94,1.94,0,0,1,84,322.4a4.15,4.15,0,0,1-3.08-3.32A2,2,0,0,1,83.35,316.79Z"/><path class="cls-1" d="M93.55,327.13a3.91,3.91,0,0,1,3.37,3,1.93,1.93,0,0,1-2.24,2.5,4.15,4.15,0,0,1-3.37-3A2,2,0,0,1,93.55,327.13Z"/><path class="cls-1" d="M125.65,337.77l-3.06,4.48-.68-.46c1-2,1.06-3.6.36-4.72a6.06,6.06,0,0,0-2.16-2.22l-.44-.29-11.82,17.31a1.73,1.73,0,0,0,.61,2.7l.63.43-.34.51-8.16-5.58.34-.5.68.46c1.53.84,2,.33,2.54-.55L116,332l-.44-.3a6.35,6.35,0,0,0-2.89-1.24c-1.26-.21-2.72.48-4.23,2.08l-.67-.46,3.06-4.48Z"/><path class="cls-1" d="M128.54,365.71c1.49.43,1.92-.16,2.26-1.06l3.11-7-.54-13.52c0-1-.3-1.58-1.84-2.27l-.17-.08.23-.52,8.94,4-.23.52-.88-.39c-.88-.39-1.42,0-1.47.56l0,11.35,8.61-7.51c.47-.46.14-1.15-.74-1.54l-.79-.35.23-.52,6.21,2.76-.23.52-.31-.14c-1.23-.55-2.19-.54-2.84,0l-9.77,8.2-3.45,7.77c-.44.86-.64,1.56.95,2.5l.7.31-.24.55L127.58,366l.25-.55Z"/><path class="cls-1" d="M170.46,366.36a11.38,11.38,0,0,1-6.82.27,9.83,9.83,0,0,1-1.42-.45L160.06,375a1.66,1.66,0,0,0,1.33,2.28l.56.14-.14.59-9-2.21.14-.59.42.11c1.81.33,2.15-.47,2.33-1.38l4.61-18.81c.25-.82.29-1.58-1.46-2.16l-.47-.11.14-.56,9.32,2.29c4.54,1.11,7.39,4.09,6.5,7.69A5.72,5.72,0,0,1,170.46,366.36Zm-5.41-11.74-2.63,10.72a10,10,0,0,0,1.2.37,4.42,4.42,0,0,0,4.19-.7,7.28,7.28,0,0,0,2.12-3.75c.84-3.44-.34-5.53-3.48-6.29Z"/><path class="cls-1" d="M190,358.75l-.74,10.48,1.39.1c1.78.12,3.29-.63,3.39-2.06l0-.78,1,.07-.52,7.44-1-.06.08-1.14c.1-1.46-1.27-2.56-3-2.69l-1.4-.1-.72,10.3c-.05.68.31,1,1.08,1.08l2.17.15a5,5,0,0,0,3.08-.57c1.06-.6,1.89-2.08,2.39-4.38l.87.06-.43,6.1-16.17-1.14,0-.61.63.05c1.2.08,1.82-.52,1.91-1.77L185.36,360c.11-.85.07-1.61-1.75-1.88l-.53,0,0-.57,15.59,1.1-.38,5.42-.87-.06c-.18-2.92-1.35-4.76-4.82-5Z"/><path class="cls-1" d="M208.28,358.5,224,357l.52,5.4-.86.09c-.66-2.85-2-4.47-5.48-4.14l-2.83.27,1,10.66,1.4-.13c1.77-.17,3.18-1.17,3-2.59l-.08-.82.92-.08.71,7.46-.92.09-.1-1.14c-.14-1.46-1.63-2.32-3.5-2.14l-1.39.13.89,9.35c.12,1.24.76,1.83,1.95,1.72l.68-.07.06.61-9.46.9-.06-.61.68-.06c1.81-.28,1.77-1.14,1.68-2.07L211,360.57c0-.86-.2-1.6-2.14-1.55l-.52.05Z"/><path class="cls-1" d="M237.25,355.13a12.61,12.61,0,0,0,3.43-2.53l12.16,20a2.4,2.4,0,0,0,3,1l.16.59-8.86,2.33L247,376c1.64-.43,1.93-.83,1.48-1.79l-.36-.6c-.48-.87-1.66-2.86-2.71-4.61l-5.69,1.5.12,5.95c0,.77.67,1.23,2.55.77l.15.59-6.62,1.74-.15-.58c1.86-.49,2.35-1.29,2.43-2.68l0-19.57Zm7.67,13-5.4-9.14.18,10.52Z"/><path class="cls-1" d="M276.71,360.23l1.1-.49a6.45,6.45,0,0,1-3.56,7.39c-5.27,2.48-11.9-1.55-14.41-7.51a12.9,12.9,0,0,1-.74-9.06,9.3,9.3,0,0,1,5.11-6.29c.74-.33,2.46-.51,3.12-.81s.89-.6.89-.95l.75-.34,2.37,5.28-.74.34q-3.19-4.1-6-2.82c-3.12,1.4-3.61,5.61-.28,13a29.76,29.76,0,0,0,3.71,6.48c1.2,1.38,2.19,2.19,3.06,2.35a4.82,4.82,0,0,0,2.86-.46C276.07,365.41,277,363.35,276.71,360.23Z"/><path class="cls-1" d="M283.35,334.94l5.82,8.75,1.16-.78c1.49-1,2.22-2.5,1.43-3.69l-.44-.66.8-.53,4.14,6.21-.8.54-.63-1c-.81-1.22-2.57-1.24-4.06-.26l-1.16.78,5.72,8.59c.38.57.88.62,1.52.19l1.8-1.2a5,5,0,0,0,2.1-2.34c.46-1.13.21-2.81-.79-4.93l.72-.48,3.39,5.09-13.49,9-.34-.5.52-.35a1.63,1.63,0,0,0,.44-2.57l-10.73-16.11c-.44-.74-.93-1.31-2.54-.41l-.44.29-.32-.48,13-8.66,3,4.52-.72.48c-1.93-2.19-4-2.93-6.87-1Z"/><path class="cls-1" d="M304.82,331.7a3.92,3.92,0,0,1,3.41-3,1.94,1.94,0,0,1,2.21,2.54,4.15,4.15,0,0,1-3.41,3A2,2,0,0,1,304.82,331.7Z"/><path class="cls-1" d="M315.46,321.8a3.91,3.91,0,0,1,3.13-3.27,1.93,1.93,0,0,1,2.43,2.32,4.15,4.15,0,0,1-3.13,3.27A2,2,0,0,1,315.46,321.8Z"/><path class="cls-1" d="M325.15,311a3.9,3.9,0,0,1,2.82-3.55,1.94,1.94,0,0,1,2.63,2.09,4.19,4.19,0,0,1-2.82,3.55A2,2,0,0,1,325.15,311Z"/><path class="cls-1" d="M333.86,299.34a3.9,3.9,0,0,1,2.49-3.78,1.92,1.92,0,0,1,2.8,1.84,4.17,4.17,0,0,1-2.48,3.79A2,2,0,0,1,333.86,299.34Z"/><path class="cls-1" d="M341.43,287a3.91,3.91,0,0,1,2.14-4,1.93,1.93,0,0,1,3,1.58,4.16,4.16,0,0,1-2.13,4A2,2,0,0,1,341.43,287Z"/><path class="cls-2" d="M201.76,349.87A140,140,0,0,1,73.62,266.08l1.81-.79a137.91,137.91,0,0,0,252.66,0l1.82.79A140,140,0,0,1,201.76,349.87Z"/></svg>